<?xml version="1.0" encoding="iso-8859-1"?>
<!-- Generator: Adobe Illustrator 19.0.0, SVG Export Plug-In . SVG Version: 6.00 Build 0)  -->
<svg version="1.1" id="Capa_1" xmlns="http://www.w3.org/2000/svg" xmlns:xlink="http://www.w3.org/1999/xlink" x="0px" y="0px"
	 viewBox="0 0 512 512" style="enable-background:new 0 0 512 512;" xml:space="preserve">
<g>
	<g>
		<polygon style="fill:#FFFFFF;" points="256,149.939 256,256 220.646,256 220.646,291.354 149.939,291.354 149.939,256 
			114.594,256 114.594,149.939 149.939,149.939 149.939,114.594 220.646,114.594 220.646,149.939 		"/>
		<polygon style="fill:#FFFFFF;" points="220.672,149.931 220.672,114.603 149.931,114.603 149.931,149.931 114.603,149.931 
			114.603,256 149.931,256 149.931,291.328 220.672,291.328 220.672,256 256,256 256,149.931 		"/>
		<polygon style="fill:#FFFFFF;" points="468.139,149.931 468.139,256 432.725,256 432.725,291.328 362.069,291.328 362.069,256 
			326.741,256 326.741,149.931 362.069,149.931 362.069,114.603 432.725,114.603 432.725,149.931 		"/>
	</g>
	<g>
		<rect x="149.939" y="220.646" style="fill:#336A93;" width="70.707" height="70.707"/>
		<rect x="362.069" y="220.646" style="fill:#336A93;" width="70.707" height="70.707"/>
	</g>
	<g>
		<polygon style="fill:#FFFFFF;" points="256,149.939 256,256 220.646,256 220.646,291.354 149.939,291.354 149.939,256 
			114.594,256 114.594,149.939 149.939,149.939 149.939,114.594 220.646,114.594 220.646,149.939 		"/>
		<polygon style="fill:#FFFFFF;" points="220.672,149.931 220.672,114.603 149.931,114.603 149.931,149.931 114.603,149.931 
			114.603,256 149.931,256 149.931,291.328 220.672,291.328 220.672,256 256,256 256,149.931 		"/>
	</g>
	<rect x="432.725" y="114.603" style="fill:#A4C2F7;" width="35.413" height="35.328"/>
	<polygon style="fill:#FFFFFF;" points="468.139,149.931 468.139,256 432.725,256 432.725,291.328 362.069,291.328 362.069,256 
		326.741,256 326.741,149.931 362.069,149.931 362.069,114.603 432.725,114.603 432.725,149.931 	"/>
	<path style="fill:#A4C2F7;" d="M80.469,468.139v35.328h34.133v-35.328H80.469z M186.539,220.672V256h34.133v-35.328H186.539z
		 M115.797,432.725v35.413h34.133v-35.413H115.797z M257.195,468.139v35.328h34.133v-35.328H257.195z M292.608,432.725v35.413
		h34.133v-35.413H292.608z M327.936,8.533v35.328h34.133V8.533H327.936z M363.264,43.861v35.413h34.133V43.861H363.264z
		 M398.592,79.275v35.328h34.133V79.275H398.592z M398.592,220.672V256h34.133v-35.328H398.592z M434.005,468.139v35.328h34.133
		v-35.328H434.005z M469.333,185.259v282.88h34.133v-282.88H469.333z"/>
	<g>
		<path style="fill:#E3E7F2;" d="M186.539,220.672V256h34.133v-35.328H186.539z M186.539,220.672V256h34.133v-35.328H186.539z"/>
		<path style="fill:#E3E7F2;" d="M468.161,185.259V256h-68.258v-35.328h-35.847V256h-34.674V149.931h34.674v-35.328h35.847V79.275
			h-34.674V43.861h-34.674V8.533H155.846v35.328h-34.674v35.413H86.498v35.328H51.741v70.656H17.067v282.88h34.674v35.328h35.93
			v-35.328h34.674v-35.413h68.175v35.413h34.757v35.328h35.846v-35.328h34.757v-35.413h68.175v35.413h34.674v35.328h35.93v-35.328
			h34.674v-282.88H468.161z M259.951,256h-68.175v-35.328h-35.93V256h-34.674V149.931h34.674v-35.328h69.431v35.328h34.674V256z"/>
	</g>
	<g>
		<rect x="149.939" y="220.646" style="fill:#428DFF;" width="70.707" height="70.707"/>
		<rect x="362.069" y="220.646" style="fill:#428DFF;" width="70.707" height="70.707"/>
	</g>
	<g>
		<rect x="8.533" y="187.733" style="fill:#FFFFFF;" width="34.133" height="281.6"/>
		<rect x="41.387" y="114.603" style="fill:#FFFFFF;" width="35.413" height="73.131"/>
		<rect x="78.08" y="78.507" style="fill:#FFFFFF;" width="35.413" height="35.328"/>
		<rect x="114.876" y="43.913" style="fill:#FFFFFF;" width="35.413" height="35.328"/>
		<rect x="150.528" y="7.33" style="fill:#FFFFFF;" width="35.413" height="35.328"/>
	</g>
	<g>
		<path style="fill:#428DFF;" d="M223.98,106.733c-1.053-0.446-2.186-0.676-3.33-0.674h-70.708
			c-4.717,0.002-8.539,3.825-8.542,8.542v26.8h-26.8c-4.717,0.002-8.539,3.825-8.542,8.542V256
			c-0.001,2.264,0.897,4.435,2.498,6.035c1.601,1.601,3.772,2.499,6.035,2.498H141.4v26.792c0.001,4.72,3.822,8.548,8.542,8.558
			h70.708c4.722-0.012,8.546-3.837,8.558-8.558v-26.792H256c2.264,0.001,4.435-0.897,6.035-2.498s2.499-3.772,2.498-6.035V149.933
			c0.001-2.264-0.897-4.435-2.498-6.035c-1.601-1.601-3.772-2.499-6.035-2.498h-26.792v-26.8
			C229.21,111.164,227.149,108.062,223.98,106.733z M212.117,256v26.792h-53.642v-53.608h53.642V256z M247.467,247.467h-18.283
			V220.65c0.001-2.264-0.897-4.435-2.498-6.035c-1.601-1.601-3.772-2.499-6.035-2.498h-70.708c-2.264-0.001-4.435,0.897-6.035,2.498
			c-1.601,1.601-2.499,3.772-2.498,6.035v26.817h-18.275v-88.992h26.808c2.264,0.001,4.435-0.897,6.035-2.498
			c1.601-1.601,2.499-3.772,2.498-6.035v-26.808h53.642v26.808c-0.001,2.264,0.897,4.435,2.498,6.035
			c1.601,1.601,3.772,2.499,6.035,2.498h26.817V247.467z"/>
		<path style="fill:#428DFF;" d="M503.467,176.758H476.65v-62.167c0.001-2.264-0.897-4.435-2.498-6.035
			c-1.601-1.601-3.772-2.499-6.035-2.498h-26.825V79.242c0.001-2.264-0.897-4.435-2.498-6.035c-1.601-1.601-3.772-2.499-6.035-2.498
			h-26.825v-26.85c0.001-2.264-0.897-4.435-2.498-6.035c-1.601-1.601-3.772-2.499-6.035-2.498h-26.8V8.533
			c0.001-2.264-0.897-4.435-2.498-6.035S364.33-0.001,362.067,0H149.933c-2.264-0.001-4.435,0.897-6.035,2.498
			c-1.601,1.601-2.499,3.772-2.498,6.035v26.792h-26.8c-2.264-0.001-4.435,0.897-6.035,2.498s-2.499,3.772-2.498,6.035v26.883
			H79.275c-2.264-0.001-4.435,0.897-6.035,2.498c-1.601,1.601-2.499,3.772-2.498,6.035v26.792H43.858
			c-2.264-0.001-4.435,0.897-6.035,2.498s-2.499,3.772-2.498,6.035v62.126H8.533c-2.264-0.001-4.435,0.897-6.035,2.498
			c-1.601,1.601-2.499,3.772-2.498,6.035v36.608c0,4.713,3.821,8.533,8.533,8.533s8.533-3.821,8.533-8.533v-28.075h26.792
			c2.264,0.001,4.435-0.897,6.035-2.498c1.601-1.601,2.499-3.772,2.498-6.035v-62.125h26.883c2.264,0.001,4.435-0.897,6.035-2.498
			c1.601-1.601,2.499-3.772,2.498-6.035V87.808H114.6c2.264,0.001,4.435-0.897,6.035-2.498c1.601-1.601,2.499-3.772,2.498-6.035
			V52.392h26.8c2.264,0.001,4.435-0.897,6.035-2.498c1.601-1.601,2.499-3.772,2.498-6.035V17.067h195.067v26.792
			c-0.001,2.264,0.897,4.435,2.498,6.035c1.601,1.601,3.772,2.499,6.035,2.498h26.8v26.883c-0.001,2.264,0.897,4.435,2.498,6.035
			c1.601,1.601,3.772,2.499,6.035,2.498c0.059,0,0.107-0.032,0.165-0.033h26.66v18.283h-62.167
			c-2.264-0.001-4.435,0.897-6.035,2.498c-1.601,1.601-2.499,3.772-2.498,6.035V141.4h-26.784c-4.722-0.001-8.554,3.82-8.567,8.542
			V256c-0.001,2.264,0.897,4.435,2.498,6.035s3.772,2.499,6.035,2.498h26.817v26.817c-0.001,2.264,0.897,4.435,2.498,6.035
			s3.772,2.499,6.035,2.498h70.7c2.264,0.001,4.435-0.897,6.035-2.498s2.499-3.772,2.498-6.035v-26.817h26.85
			c2.264,0.001,4.435-0.897,6.035-2.498c1.601-1.601,2.499-3.772,2.498-6.035l-0.025-0.124v-62.051h18.284v265.783h-26.792
			c-2.264-0.001-4.435,0.897-6.035,2.498s-2.499,3.772-2.498,6.035v26.792h-53.675v-26.792c0.001-2.264-0.897-4.435-2.498-6.035
			s-3.772-2.499-6.035-2.498h-26.8v-26.883c0.001-2.264-0.897-4.435-2.498-6.035c-1.601-1.601-3.772-2.499-6.035-2.498h-35.325
			c-2.264-0.001-4.435,0.897-6.035,2.498c-1.601,1.601-2.499,3.772-2.498,6.035v26.883h-26.883
			c-2.264-0.001-4.435,0.897-6.035,2.498c-1.601,1.601-2.499,3.772-2.498,6.035v26.791h-53.583v-26.792
			c0.001-2.264-0.897-4.435-2.498-6.035s-3.772-2.499-6.035-2.498h-26.883v-26.883c0.001-2.264-0.897-4.435-2.498-6.035
			c-1.601-1.601-3.772-2.499-6.035-2.498h-35.325c-2.264-0.001-4.435,0.897-6.035,2.498c-1.601,1.601-2.499,3.772-2.498,6.035
			v26.883h-26.8c-2.264-0.001-4.435,0.897-6.035,2.498c-1.601,1.601-2.499,3.772-2.498,6.035v26.791H52.392v-26.792
			c0.001-2.264-0.897-4.435-2.498-6.035s-3.772-2.499-6.035-2.498H17.067V290.133c0-4.713-3.821-8.533-8.533-8.533
			S0,285.421,0,290.133v178.008c-0.001,2.264,0.897,4.435,2.498,6.035s3.772,2.499,6.035,2.498h26.792v26.792
			c-0.001,2.264,0.897,4.435,2.498,6.035c1.601,1.601,3.772,2.499,6.035,2.498H114.6c2.264,0.001,4.435-0.897,6.035-2.498
			c1.601-1.601,2.499-3.772,2.498-6.035v-26.792h26.8c2.264,0.001,4.435-0.897,6.035-2.498c1.601-1.601,2.499-3.772,2.498-6.035
			v-26.883h18.259v26.883c-0.001,2.264,0.897,4.435,2.498,6.035c1.601,1.601,3.772,2.499,6.035,2.498h26.883v26.791
			c-0.001,2.264,0.897,4.435,2.498,6.035c1.601,1.601,3.772,2.499,6.035,2.498h70.65c2.264,0.001,4.435-0.897,6.035-2.498
			c1.601-1.601,2.499-3.772,2.498-6.035v-26.792h26.883c2.264,0.001,4.435-0.897,6.035-2.498s2.499-3.772,2.498-6.035v-26.883
			h18.258v26.883c-0.001,2.264,0.897,4.435,2.498,6.035c1.601,1.601,3.772,2.499,6.035,2.498h26.8v26.791
			c-0.001,2.264,0.897,4.435,2.498,6.035c1.601,1.601,3.772,2.499,6.035,2.498h70.741c2.264,0.001,4.435-0.897,6.035-2.498
			c1.601-1.601,2.499-3.772,2.498-6.035v-26.792h26.792c2.264,0.001,4.435-0.897,6.035-2.498c1.601-1.601,2.499-3.772,2.498-6.035
			v-282.85c0.001-2.264-0.897-4.435-2.498-6.035C507.902,177.656,505.73,176.757,503.467,176.758L503.467,176.758z M459.583,141.408
			h-18.292v-18.283h18.292V141.408z M424.225,255.835c-0.001,0.058-0.033,0.106-0.033,0.165v26.792H370.6V256l-0.009-0.041v-26.776
			h53.633L424.225,255.835z M432.758,212.117h-70.7c-2.264-0.001-4.435,0.897-6.035,2.498s-2.499,3.772-2.498,6.035v26.817h-18.25
			v-88.992h26.783c4.717-0.002,8.539-3.825,8.542-8.542v-26.8h26.8l0.041-0.009h26.784v26.817c-0.001,2.264,0.897,4.435,2.498,6.035
			c1.601,1.601,3.772,2.499,6.035,2.498h26.825v88.992h-18.291V220.65c0.001-2.264-0.897-4.435-2.498-6.035
			S435.022,212.115,432.758,212.117L432.758,212.117z"/>
		<circle style="fill:#428DFF;" cx="8.533" cy="256" r="8.533"/>
	</g>
</g>
<g>
</g>
<g>
</g>
<g>
</g>
<g>
</g>
<g>
</g>
<g>
</g>
<g>
</g>
<g>
</g>
<g>
</g>
<g>
</g>
<g>
</g>
<g>
</g>
<g>
</g>
<g>
</g>
<g>
</g>
</svg>
