<svg height="512pt" viewBox="-18 0 512 512" width="512pt" xmlns="http://www.w3.org/2000/svg"><path d="m146.285156 301.714844c0-10.097656-8.1875-18.285156-18.285156-18.285156h-27.429688v36.570312h27.429688c10.097656 0 18.285156-8.1875 18.285156-18.285156zm0 0"/><path d="m135.714844 149.257812-3.242188-9.453124-3.238281 9.453124c-1.269531 3.695313-4.75 6.175782-8.660156 6.171876h-8.171875l5.878906 3.910156c3.476562 2.308594 4.949219 6.675781 3.582031 10.617187l-2.8125 8.128907 8.289063-5.640626c3.101562-2.105468 7.171875-2.105468 10.269531 0l8.300781 5.640626-2.824218-8.128907c-1.367188-3.941406.105468-8.308593 3.582031-10.617187l5.890625-3.910156h-8.230469c-3.890625-.015626-7.347656-2.492188-8.613281-6.171876zm0 0"/><path d="m356.570312 283.429688h-27.425781v36.570312h27.425781c10.101563 0 18.285157-8.1875 18.285157-18.285156s-8.183594-18.285156-18.285157-18.285156zm0 0"/><path d="m227.109375 96.8125-2.824219 8.128906 8.289063-5.640625c3.101562-2.109375 7.175781-2.109375 10.277343 0l8.292969 5.640625-2.824219-8.128906c-1.367187-3.941406.105469-8.308594 3.582032-10.613281l5.925781-3.914063h-8.226563c-3.910156.003906-7.390624-2.472656-8.660156-6.171875l-3.226562-9.453125-3.238282 9.453125c-1.269531 3.695313-4.742187 6.171875-8.648437 6.171875h-8.171875l5.878906 3.914063c3.472656 2.308593 4.941406 6.675781 3.574219 10.613281zm0 0"/><path d="m438.855469 457.144531h-402.285157v18.285157h402.285157zm0 0"/><path d="m475.429688 493.714844h-475.429688v18.285156h475.4375zm0 0"/><path d="m420.570312 128c-.074218-70.660156-57.335937-127.9257812-128-128h-109.714843c-70.660157.0742188-127.921875 57.339844-128 128v310.855469h365.714843zm-242.011718-57.507812c1.191406-3.851563 4.75-6.480469 8.777344-6.492188h32l9.691406-28.433594c1.234375-3.753906 4.738281-6.289062 8.6875-6.289062 3.949218 0 7.453125 2.535156 8.683594 6.289062l9.691406 28.433594h32c4.03125.011719 7.585937 2.640625 8.777344 6.492188 1.171874 3.867187-.355469 8.042968-3.746094 10.238281l-25.234375 16.824219 9.597656 27.429687c1.320313 3.722656.058594 7.875-3.105469 10.238281-1.5625 1.234375-3.496094 1.910156-5.488281 1.921875-1.847656-.007812-3.660156-.550781-5.210937-1.554687l-25.964844-17.648438-25.964844 17.648438c-1.527344.992187-3.300781 1.53125-5.121094 1.554687-2.957031-.019531-5.726562-1.457031-7.445312-3.863281-1.722656-2.410156-2.183594-5.492188-1.242188-8.296875l9.601563-27.429687-25.234375-16.824219c-3.390625-2.195313-4.917969-6.371094-3.75-10.238281zm-25.78125 307.015624c3.566406 3.59375 3.566406 9.390626 0 12.984376-3.605469 3.535156-9.378906 3.535156-12.984375 0l-39.222657-39.316407v32.824219c0 5.050781-4.09375 9.144531-9.140624 9.144531-5.050782 0-9.144532-4.09375-9.144532-9.144531v-109.714844c0-5.050781 4.09375-9.140625 9.144532-9.140625h36.570312c12.183594 0 23.5625 6.066407 30.355469 16.179688 4.078125 6.015625 6.246093 13.121093 6.214843 20.390625 0 20.199218-16.371093 36.570312-36.570312 36.570312h-14.539062zm35.109375-223.632812-25.234375 16.820312 9.597656 27.429688c1.320312 3.726562.058594 7.875-3.105469 10.242188-1.558593 1.246093-3.492187 1.925781-5.488281 1.917968-1.847656-.007812-3.660156-.546875-5.210938-1.554687l-25.964843-17.644531-25.964844 17.644531c-3.277344 2.179687-7.578125 2.03125-10.699219-.363281-3.117187-2.398438-4.367187-6.515626-3.109375-10.242188l9.601563-27.429688-25.234375-16.820312c-2.574219-1.664062-4.125-4.523438-4.113281-7.589844-.019532-.898437.101562-1.792968.363281-2.652344 1.191406-3.847656 4.75-6.476562 8.777343-6.488281h31.910157l9.78125-28.4375c1.234375-3.75 4.738281-6.285156 8.6875-6.285156s7.453125 2.535156 8.683593 6.285156l9.691407 28.4375h32c.492187-.019531.980469.011719 1.464843.089844 3.707032.613281 6.664063 3.429687 7.453126 7.105469.785156 3.675781-.753907 7.457031-3.886719 9.535156zm86.398437 239.269531h-73.140625c-5.050781 0-9.144531-4.09375-9.144531-9.144531s4.09375-9.144531 9.144531-9.144531h27.425781v-91.425781h-27.425781c-3.035156-.03125-5.863281-1.53125-7.589843-4.023438-1.03125-1.507812-1.574219-3.296875-1.554688-5.121094 0-5.050781 4.09375-9.140625 9.144531-9.140625h73.140625c5.050782 0 9.144532 4.089844 9.144532 9.140625 0 5.050782-4.09375 9.144532-9.144532 9.144532h-27.429687v91.425781h27.429687c5.050782 0 9.144532 4.09375 9.144532 9.144531s-4.09375 9.144531-9.144532 9.144531zm82.285156-54.859375h-27.425781v45.714844c0 5.050781-4.09375 9.144531-9.144531 9.144531s-9.144531-4.09375-9.144531-9.144531v-109.714844c0-5.050781 4.09375-9.140625 9.144531-9.140625h36.570312c20.199219 0 36.574219 16.371094 36.574219 36.570313 0 20.199218-16.375 36.570312-36.574219 36.570312zm41.601563-184.410156-25.234375 16.820312 9.601562 27.429688c1.316407 3.726562.054688 7.875-3.109374 10.242188-1.554688 1.246093-3.492188 1.925781-5.488282 1.917968-1.847656-.007812-3.65625-.546875-5.210937-1.554687l-25.964844-17.644531-25.964844 17.644531c-3.277343 2.179687-7.578125 2.03125-10.695312-.363281-3.121094-2.398438-4.371094-6.515626-3.109375-10.242188l9.597656-27.429688-25.234375-16.820312c-3.390625-2.199219-4.917969-6.375-3.746094-10.242188 1.191407-3.847656 4.746094-6.476562 8.773438-6.488281h31.910156l9.78125-28.4375c1.234375-3.75 4.738281-6.285156 8.6875-6.285156s7.453125 2.535156 8.6875 6.285156l9.691406 28.4375h32c4.027344.011719 7.582031 2.640625 8.777344 6.488281.253906.832032.378906 1.695313.363281 2.5625.015625 3.089844-1.53125 5.980469-4.113281 7.679688zm0 0"/><path d="m346.003906 149.257812-3.246094-9.453124-3.238281 9.453124c-1.269531 3.695313-4.75 6.175782-8.65625 6.171876h-8.175781l5.878906 3.910156c3.476563 2.308594 4.953125 6.675781 3.585938 10.617187l-2.816406 8.128907 8.292968-5.640626c3.097656-2.105468 7.167969-2.105468 10.265625 0l8.300781 5.640626-2.824218-8.128907c-1.367188-3.941406.109375-8.308593 3.585937-10.617187l5.886719-3.910156h-8.230469c-3.890625-.015626-7.347656-2.492188-8.609375-6.171876zm0 0"/></svg>