<?xml version="1.0" encoding="iso-8859-1"?>
<!-- Generator: Adobe Illustrator 19.0.0, SVG Export Plug-In . SVG Version: 6.00 Build 0)  -->
<svg version="1.1" id="Capa_1" xmlns="http://www.w3.org/2000/svg" xmlns:xlink="http://www.w3.org/1999/xlink" x="0px" y="0px"
	 viewBox="0 0 512 512" style="enable-background:new 0 0 512 512;" xml:space="preserve">
<g>
	<g>
		<path d="M490.305,416.542H21.695c-4.79,0-8.678,3.888-8.678,8.678v78.102c0,4.79,3.888,8.678,8.678,8.678h468.61
			c4.79,0,8.678-3.888,8.678-8.678V425.22C498.983,420.43,495.095,416.542,490.305,416.542z M481.627,494.644H30.373v-60.746
			h451.254V494.644z"/>
	</g>
</g>
<g>
	<g>
		<path d="M455.593,364.475H56.407c-4.79,0-8.678,3.888-8.678,8.678v52.068c0,4.79,3.888,8.678,8.678,8.678h399.186
			c4.79,0,8.678-3.888,8.678-8.678v-52.068C464.271,368.362,460.383,364.475,455.593,364.475z M446.915,416.542H65.085v-34.712
			h381.831V416.542z"/>
	</g>
</g>
<g>
	<g>
		<path d="M256,0C165.085,0,91.119,73.967,91.119,164.881v208.271c0,4.79,3.888,8.678,8.678,8.678h312.407
			c4.79,0,8.678-3.888,8.678-8.678V164.881C420.881,73.967,346.915,0,256,0z M403.525,364.475H108.475V164.881
			c0-81.347,66.178-147.525,147.525-147.525s147.525,66.178,147.525,147.525V364.475z"/>
	</g>
</g>
<g>
	<g>
		<path d="M342.78,121.492h-60.746V69.424c0-4.79-3.888-8.678-8.678-8.678h-34.712c-4.79,0-8.678,3.888-8.678,8.678v52.068H169.22
			c-4.79,0-8.678,3.888-8.678,8.678v34.712c0,4.79,3.888,8.678,8.678,8.678h60.746v138.847c0,4.79,3.888,8.678,8.678,8.678h34.712
			c4.79,0,8.678-3.888,8.678-8.678V173.559h60.746c4.79,0,8.678-3.888,8.678-8.678v-34.712
			C351.458,125.379,347.57,121.492,342.78,121.492z M334.102,156.203h-60.746c-4.79,0-8.678,3.888-8.678,8.678v138.847h-17.356
			V164.881c0-4.79-3.888-8.678-8.678-8.678h-60.746v-17.356h60.746c4.79,0,8.678-3.888,8.678-8.678V78.102h17.356v52.068
			c0,4.79,3.888,8.678,8.678,8.678h60.746V156.203z"/>
	</g>
</g>
<g>
	<g>
		<path d="M342.78,303.729H169.22c-4.79,0-8.678,3.888-8.678,8.678s3.888,8.678,8.678,8.678H342.78c4.79,0,8.678-3.888,8.678-8.678
			S347.57,303.729,342.78,303.729z"/>
	</g>
</g>
<g>
</g>
<g>
</g>
<g>
</g>
<g>
</g>
<g>
</g>
<g>
</g>
<g>
</g>
<g>
</g>
<g>
</g>
<g>
</g>
<g>
</g>
<g>
</g>
<g>
</g>
<g>
</g>
<g>
</g>
</svg>
